<mxfile host="app.diagrams.net" modified="2023-03-24T15:29:00.565Z" agent="Mozilla/5.0 (Macintosh; Intel Mac OS X 10_15_7) AppleWebKit/537.36 (KHTML, like Gecko) Chrome/111.0.0.0 Safari/537.36" version="21.1.1" etag="mwmm6FZ6cMcBl00m-sqf" type="github">
  <diagram name="PÃ¡gina-1" id="Rd8j1YLOppmoUy890Ry6">
    <mxGraphModel>
      <root>
        <mxCell id="0" />
        <mxCell id="1" parent="0" />
      </root>
    </mxGraphModel>
  </diagram>
</mxfile>
